<svg width="82" height="82" xmlns="http://www.w3.org/2000/svg"><g transform="translate(.569 .243)" fill="none" fill-rule="evenodd"><path d="M43.319 52.628v-2.504c0-4.367 2.825-6.872 5.587-9.505 2.826-2.697 5.523-5.651 5.523-10.917 0-8.156-5.652-12.844-13.55-12.844-8.991 0-14.514 6.614-14.386 15.413h5.459c-.064-5.909 2.825-10.597 8.926-10.597 4.56 0 7.45 2.826 7.771 7.514.321 4.752-2.505 7.193-5.01 9.697-2.568 2.57-5.779 5.459-5.779 10.725v3.018h5.459zm.77 11.175v-7.129h-7.128v7.129h7.128z" fill="#FF7900" fill-rule="nonzero"/><circle stroke="#FF7900" stroke-width="5" cx="40.138" cy="40.138" r="37.638"/></g></svg>