<?xml version="1.0" encoding="UTF-8"?>
<svg width="82px" height="82px" viewBox="0 0 82 82" version="1.1" xmlns="http://www.w3.org/2000/svg" xmlns:xlink="http://www.w3.org/1999/xlink">
    <title>63BC80FE-4D80-4963-BD87-3640369E0DA8</title>
    <g id="✅-JEU-ILLIMIX" stroke="none" stroke-width="1" fill="none" fill-rule="evenodd">
        <g id="[OSN-2.0]---Grand-Jeu-s'cool---Popup-jeu-1-(Desktop)" transform="translate(-776.000000, -615.000000)">
            <g id="Group-20" transform="translate(776.568807, 615.243119)">
                <path d="M43.3187063,52.6284404 L43.3187063,50.1238532 C43.3187063,45.7568807 46.1443944,43.2522936 48.9058623,40.6192661 C51.7315503,37.9220183 54.428798,34.9678899 54.428798,29.7018349 C54.428798,21.5458716 48.7774219,16.8577982 40.8783393,16.8577982 C31.8875136,16.8577982 26.3645779,23.4724771 26.4930182,32.2706422 L31.9517338,32.2706422 C31.8875136,26.3623853 34.7774219,21.6743119 40.8783393,21.6743119 C45.4379724,21.6743119 48.3278806,24.5 48.6489815,29.1880734 C48.9700824,33.940367 46.1443944,36.3807339 43.6398072,38.8853211 C41.0709999,41.4541284 37.8599907,44.3440367 37.8599907,49.6100917 L37.8599907,52.6284404 L43.3187063,52.6284404 Z M44.0893485,63.8027523 L44.0893485,56.6743119 L36.9609081,56.6743119 L36.9609081,63.8027523 L44.0893485,63.8027523 Z" id="?" fill="#FF7900" fill-rule="nonzero"></path>
                <circle id="Oval" stroke="#FF7900" stroke-width="5" cx="40.1376147" cy="40.1376147" r="37.6376147"></circle>
            </g>
        </g>
    </g>
</svg>